<?xml version="1.0" encoding="UTF-8"?>
<svg id="_레이어_2" data-name="레이어 2" xmlns="http://www.w3.org/2000/svg" viewBox="0 0 76.23 76.24">
  <defs>
    <style>
      .cls-1 {
        fill: #1d77f1;
      }
    </style>
  </defs>
  <path class="cls-1" d="M68.55,0H7.69C3.44,0,0,3.41,0,7.62v60.99c0,4.21,3.44,7.62,7.69,7.62H40.72v-29.52h-9.94v-11.51h9.94v-8.48c0-9.85,6.02-15.21,14.8-15.21,4.21,0,7.83,.31,8.88,.45v10.29h-6.1c-4.78,0-5.7,2.27-5.7,5.61v7.34h11.39l-1.48,11.51h-9.91v29.52h15.95c4.25,0,7.69-3.41,7.69-7.62V7.62c0-4.21-3.44-7.62-7.69-7.62Z"/>
</svg>