<?xml version="1.0" encoding="UTF-8"?>
<svg id="_레이어_2" data-name="레이어 2" xmlns="http://www.w3.org/2000/svg" viewBox="0 0 75.34 76.24">
  <defs>
    <style>
      .cls-1 {
        fill: #069;
      }

      .cls-2 {
        fill: #fff;
      }
    </style>
  </defs>
  <path class="cls-1" d="M75.34,68.62c0,4.21-3.4,7.62-7.6,7.62H7.6c-4.2,0-7.6-3.41-7.6-7.62V7.62C0,3.41,3.4,0,7.6,0h60.15c4.2,0,7.6,3.41,7.6,7.62v60.99Z"/>
  <g>
    <path class="cls-2" d="M24.51,18.64c0,2.8-2.07,5.07-5.47,5.07-3.2,0-5.27-2.27-5.27-5.07s2.13-5.07,5.4-5.07,5.27,2.2,5.34,5.07ZM14.04,60.32V27.71h10.14V60.32H14.04Z"/>
    <path class="cls-2" d="M30.24,38.11c0-4.07-.13-7.47-.27-10.4h8.8l.47,4.53h.2c1.33-2.13,4.6-5.27,10.07-5.27,6.67,0,11.67,4.47,11.67,14.07v19.27h-10.14v-18.07c0-4.2-1.47-7.07-5.14-7.07-2.8,0-4.47,1.93-5.2,3.8-.27,.67-.33,1.6-.33,2.53v18.81h-10.14v-22.21Z"/>
  </g>
</svg>