<?xml version="1.0" encoding="UTF-8"?>
<svg id="_레이어_2" data-name="레이어 2" xmlns="http://www.w3.org/2000/svg" viewBox="0 0 75.65 75.07">
  <defs>
    <style>
      .cls-1 {
        fill: #e8722d;
      }

      .cls-2 {
        fill: #fff;
      }

      .cls-3 {
        fill: #3cab37;
      }
    </style>
  </defs>
  <path class="cls-3" d="M75.65,61.32c0,7.61-6.16,13.76-13.76,13.76H13.75c-7.59,0-13.75-6.15-13.75-13.76V13.74C0,6.15,6.16,0,13.75,0H61.9c7.6,0,13.76,6.15,13.76,13.74V61.32Z"/>
  <path class="cls-2" d="M59.21,6.16H15.31c-5.6,0-10.13,4.56-10.13,10.17v24.13c0,5.61,4.53,10.17,10.13,10.17h15.13l5.16,8.4s.05,.11,.16,.24c.3,.52,.86,.87,1.5,.87s1.19-.35,1.49-.86c.13-.15,.18-.25,.18-.25l5.16-8.4h15.12c5.6,0,10.14-4.55,10.14-10.17V16.33c0-5.61-4.54-10.17-10.14-10.17"/>
  <path class="cls-1" d="M19.43,23.84s-1.75,0-3.35,1.55v-6.23h-3.92v16.36h3.97v-1.28s.94,1.7,3.3,1.7c0,0,5.53-.21,5.53-6.12,0,0-.2-5.98-5.53-5.98m-.87,8.63c-1.39,0-2.52-1.13-2.52-2.52s1.13-2.52,2.52-2.52,2.52,1.13,2.52,2.52-1.13,2.52-2.52,2.52"/>
  <path class="cls-1" d="M26.23,18.78v3.8s1.79-.08,1.79,3.26v9.68h3.79v-10.58s.16-6.16-5.58-6.16"/>
  <path class="cls-1" d="M41.06,23.9s-6.49,0-6.49,6.06c0,0-.21,5.98,6.49,5.98,0,0,6.64-.01,6.64-5.98,0,0,.22-6.06-6.64-6.06m0,8.58c-1.4,0-2.52-1.13-2.52-2.52s1.13-2.52,2.52-2.52,2.52,1.13,2.52,2.52-1.13,2.52-2.52,2.52"/>
  <path class="cls-1" d="M58.54,24.28v1.11s-1.13-1.5-3.3-1.5c0,0-5.56-.24-5.56,6.02,0,0-.06,5.83,5.4,5.83,0,0,2.23,.09,3.45-1.5v.92s.28,2.87-2.5,2.87h-.95v3.48h1.53s5.74,.06,5.74-6.13v-11.1h-3.82Zm-2.35,8.19c-1.39,0-2.53-1.13-2.53-2.52s1.13-2.52,2.53-2.52,2.52,1.13,2.52,2.52-1.13,2.52-2.52,2.52"/>
</svg>